<svg width="926" height="926" viewBox="0 0 926 926" fill="none" xmlns="http://www.w3.org/2000/svg">
<circle cx="462.833" cy="462.834" r="348.5" transform="rotate(-155.101 462.833 462.834)" fill="url(#paint0_linear_222_11279)"/>
<circle cx="462.833" cy="462.834" r="348" transform="rotate(-155.101 462.833 462.834)" stroke="url(#paint1_linear_222_11279)" stroke-opacity="0.25"/>
<circle cx="483.13" cy="460.678" r="292" transform="rotate(-155.101 483.13 460.678)" fill="url(#paint2_linear_222_11279)"/>
<circle cx="483.13" cy="460.678" r="291.5" transform="rotate(-155.101 483.13 460.678)" stroke="url(#paint3_linear_222_11279)" stroke-opacity="0.25"/>
<circle cx="493.513" cy="456.124" r="223.5" transform="rotate(-155.101 493.513 456.124)" fill="url(#paint4_linear_222_11279)"/>
<circle cx="493.513" cy="456.124" r="223" transform="rotate(-155.101 493.513 456.124)" stroke="url(#paint5_linear_222_11279)" stroke-opacity="0.25"/>
<defs>
<linearGradient id="paint0_linear_222_11279" x1="462.833" y1="114.334" x2="462.833" y2="811.334" gradientUnits="userSpaceOnUse">
<stop stop-color="white" stop-opacity="0.05"/>
<stop offset="0.45" stop-color="white" stop-opacity="0"/>
</linearGradient>
<linearGradient id="paint1_linear_222_11279" x1="462.833" y1="114.334" x2="462.833" y2="811.334" gradientUnits="userSpaceOnUse">
<stop stop-color="white"/>
<stop offset="0.55" stop-color="white" stop-opacity="0"/>
</linearGradient>
<linearGradient id="paint2_linear_222_11279" x1="483.13" y1="168.678" x2="483.13" y2="752.678" gradientUnits="userSpaceOnUse">
<stop stop-color="white" stop-opacity="0.08"/>
<stop offset="0.55" stop-color="white" stop-opacity="0"/>
</linearGradient>
<linearGradient id="paint3_linear_222_11279" x1="483.13" y1="168.678" x2="483.13" y2="752.678" gradientUnits="userSpaceOnUse">
<stop stop-color="white"/>
<stop offset="0.65" stop-color="white" stop-opacity="0"/>
</linearGradient>
<linearGradient id="paint4_linear_222_11279" x1="493.513" y1="232.624" x2="493.513" y2="679.624" gradientUnits="userSpaceOnUse">
<stop stop-color="white" stop-opacity="0.08"/>
<stop offset="0.75" stop-color="white" stop-opacity="0"/>
</linearGradient>
<linearGradient id="paint5_linear_222_11279" x1="493.513" y1="232.624" x2="493.513" y2="679.624" gradientUnits="userSpaceOnUse">
<stop stop-color="white"/>
<stop offset="0.8" stop-color="white" stop-opacity="0"/>
</linearGradient>
</defs>
</svg>
