<svg width="1242" height="1242" viewBox="0 0 1242 1242" fill="none" xmlns="http://www.w3.org/2000/svg">
<circle cx="620.915" cy="620.915" r="467.531" transform="rotate(24.8992 620.915 620.915)" fill="url(#paint0_linear_222_11283)"/>
<circle cx="620.915" cy="620.915" r="467.031" transform="rotate(24.8992 620.915 620.915)" stroke="url(#paint1_linear_222_11283)" stroke-opacity="0.25"/>
<circle cx="593.686" cy="623.807" r="391.733" transform="rotate(24.8992 593.686 623.807)" fill="url(#paint2_linear_222_11283)"/>
<circle cx="593.686" cy="623.807" r="391.233" transform="rotate(24.8992 593.686 623.807)" stroke="url(#paint3_linear_222_11283)" stroke-opacity="0.25"/>
<circle cx="579.757" cy="629.916" r="299.837" transform="rotate(24.8992 579.757 629.916)" fill="url(#paint4_linear_222_11283)"/>
<circle cx="579.757" cy="629.916" r="299.337" transform="rotate(24.8992 579.757 629.916)" stroke="url(#paint5_linear_222_11283)" stroke-opacity="0.25"/>
<defs>
<linearGradient id="paint0_linear_222_11283" x1="620.915" y1="153.384" x2="620.915" y2="1088.45" gradientUnits="userSpaceOnUse">
<stop stop-color="white" stop-opacity="0.05"/>
<stop offset="0.45" stop-color="white" stop-opacity="0"/>
</linearGradient>
<linearGradient id="paint1_linear_222_11283" x1="620.915" y1="153.384" x2="620.915" y2="1088.45" gradientUnits="userSpaceOnUse">
<stop stop-color="white"/>
<stop offset="0.55" stop-color="white" stop-opacity="0"/>
</linearGradient>
<linearGradient id="paint2_linear_222_11283" x1="593.686" y1="232.074" x2="593.686" y2="1015.54" gradientUnits="userSpaceOnUse">
<stop stop-color="white" stop-opacity="0.08"/>
<stop offset="0.55" stop-color="white" stop-opacity="0"/>
</linearGradient>
<linearGradient id="paint3_linear_222_11283" x1="593.686" y1="232.074" x2="593.686" y2="1015.54" gradientUnits="userSpaceOnUse">
<stop stop-color="white"/>
<stop offset="0.65" stop-color="white" stop-opacity="0"/>
</linearGradient>
<linearGradient id="paint4_linear_222_11283" x1="579.757" y1="330.079" x2="579.757" y2="929.752" gradientUnits="userSpaceOnUse">
<stop stop-color="white" stop-opacity="0.08"/>
<stop offset="0.75" stop-color="white" stop-opacity="0"/>
</linearGradient>
<linearGradient id="paint5_linear_222_11283" x1="579.757" y1="330.079" x2="579.757" y2="929.752" gradientUnits="userSpaceOnUse">
<stop stop-color="white"/>
<stop offset="0.8" stop-color="white" stop-opacity="0"/>
</linearGradient>
</defs>
</svg>
