<svg width="20" height="21" viewBox="0 0 20 21" fill="none" xmlns="http://www.w3.org/2000/svg">
<path d="M5 15C5.28333 15 5.521 14.904 5.713 14.712C5.905 14.52 6.00067 14.2827 6 14V4C6 3.71667 5.904 3.47933 5.712 3.288C5.52 3.09667 5.28267 3.00067 5 3C4.71733 2.99933 4.48 3.09533 4.288 3.288C4.096 3.48067 4 3.718 4 4V14C4 14.2833 4.096 14.521 4.288 14.713C4.48 14.905 4.71733 15.0007 5 15ZM16 21H3C2.16667 21 1.45833 20.7083 0.875 20.125C0.291667 19.5417 0 18.8333 0 18V4C0 3.16667 0.291667 2.45833 0.875 1.875C1.45833 1.29167 2.16667 1 3 1H9.8C9.23333 1.58333 8.79167 2.25833 8.475 3.025C8.15833 3.79167 8 4.61667 8 5.5C8 7.21667 8.57933 8.69167 9.738 9.925C10.8967 11.1583 12.3173 11.8417 14 11.975V15C14 15.55 13.8043 16.021 13.413 16.413C13.0217 16.805 12.5507 17.0007 12 17H3C2.71667 17 2.47933 17.096 2.288 17.288C2.09667 17.48 2.00067 17.7173 2 18C1.99933 18.2827 2.09533 18.5203 2.288 18.713C2.48067 18.9057 2.718 19.0013 3 19H16V11.825C16.3667 11.7417 16.7167 11.6293 17.05 11.488C17.3833 11.3467 17.7 11.1757 18 10.975V19C18 19.55 17.8043 20.021 17.413 20.413C17.0217 20.805 16.5507 21.0007 16 21ZM14.5 11C14.5 9.46667 15.0333 8.16667 16.1 7.1C17.1667 6.03333 18.4667 5.5 20 5.5C18.4667 5.5 17.1667 4.96667 16.1 3.9C15.0333 2.83333 14.5 1.53333 14.5 0C14.5 1.53333 13.9667 2.83333 12.9 3.9C11.8333 4.96667 10.5333 5.5 9 5.5C10.5333 5.5 11.8333 6.03333 12.9 7.1C13.9667 8.16667 14.5 9.46667 14.5 11Z" fill="#3254D3"/>
</svg>
