<svg width="236" height="241" viewBox="0 0 236 241" fill="none" xmlns="http://www.w3.org/2000/svg">
<circle cx="180" cy="180" r="180" transform="matrix(-1 0 0 1 360.555 0)" fill="url(#paint0_linear_57_4386)"/>
<circle cx="180" cy="180" r="179.5" transform="matrix(-1 0 0 1 360.555 0)" stroke="url(#paint1_linear_57_4386)" stroke-opacity="0.25"/>
<circle cx="150.818" cy="150.818" r="150.818" transform="matrix(-1 0 0 1 340.412 34.6055)" fill="url(#paint2_linear_57_4386)"/>
<circle cx="150.818" cy="150.818" r="150.318" transform="matrix(-1 0 0 1 340.412 34.6055)" stroke="url(#paint3_linear_57_4386)" stroke-opacity="0.25"/>
<circle cx="115.438" cy="115.438" r="115.438" transform="matrix(-1 0 0 1 308.904 74.376)" fill="url(#paint4_linear_57_4386)"/>
<circle cx="115.438" cy="115.438" r="114.938" transform="matrix(-1 0 0 1 308.904 74.376)" stroke="url(#paint5_linear_57_4386)" stroke-opacity="0.25"/>
<defs>
<linearGradient id="paint0_linear_57_4386" x1="180" y1="0" x2="180" y2="360" gradientUnits="userSpaceOnUse">
<stop stop-color="#A7DC74" stop-opacity="0.05"/>
<stop offset="0.45" stop-color="#A7DC74" stop-opacity="0"/>
</linearGradient>
<linearGradient id="paint1_linear_57_4386" x1="180" y1="0" x2="180" y2="360" gradientUnits="userSpaceOnUse">
<stop stop-color="#A7DC74"/>
<stop offset="0.55" stop-color="#A7DC74" stop-opacity="0"/>
</linearGradient>
<linearGradient id="paint2_linear_57_4386" x1="150.818" y1="0" x2="150.818" y2="301.636" gradientUnits="userSpaceOnUse">
<stop stop-color="#A7DC74" stop-opacity="0.08"/>
<stop offset="0.55" stop-color="#A7DC74" stop-opacity="0"/>
</linearGradient>
<linearGradient id="paint3_linear_57_4386" x1="150.818" y1="0" x2="150.818" y2="301.636" gradientUnits="userSpaceOnUse">
<stop stop-color="#A7DC74"/>
<stop offset="0.65" stop-color="#A7DC74" stop-opacity="0"/>
</linearGradient>
<linearGradient id="paint4_linear_57_4386" x1="115.438" y1="0" x2="115.438" y2="230.875" gradientUnits="userSpaceOnUse">
<stop stop-color="#A7DC74" stop-opacity="0.08"/>
<stop offset="0.75" stop-color="#A7DC74" stop-opacity="0"/>
</linearGradient>
<linearGradient id="paint5_linear_57_4386" x1="115.438" y1="0" x2="115.438" y2="230.875" gradientUnits="userSpaceOnUse">
<stop stop-color="#A7DC74"/>
<stop offset="0.8" stop-color="#A7DC74" stop-opacity="0"/>
</linearGradient>
</defs>
</svg>
