<svg width="17" height="18" viewBox="0 0 17 18" fill="none" xmlns="http://www.w3.org/2000/svg">
<g opacity="0.4">
<path d="M15.5029 10.1489C15.5029 10.7012 15.0552 11.1489 14.5029 11.1489H7.07925C6.81404 11.1489 6.55968 11.2543 6.37215 11.4418L6.17961 11.6344C5.99208 11.8219 5.88672 12.0762 5.88672 12.3415V14.7202C5.88672 15.2725 5.439 15.7202 4.88672 15.7202H2C1.44772 15.7202 1 15.2725 1 14.7202V11.8335C1 11.2812 1.44772 10.8335 2 10.8335H4.82176C5.06279 10.8335 5.29393 10.7376 5.46421 10.567C5.63408 10.3969 5.72949 10.1662 5.72949 9.92576V2.37549C5.72949 1.8232 6.17721 1.37549 6.72949 1.37549H14.5029C15.0552 1.37549 15.5029 1.8232 15.5029 2.37549V10.1489Z" fill="#1E45F9"/>
</g>
</svg>
