<svg width="16" height="16" viewBox="0 0 16 16" fill="none" xmlns="http://www.w3.org/2000/svg">
<path d="M5.75 2.17383H10.25C10.3875 2.17383 10.5 2.28633 10.5 2.42383V3.67383H5.5V2.42383C5.5 2.28633 5.6125 2.17383 5.75 2.17383ZM4 2.42383V3.67383H2C0.896875 3.67383 0 4.5707 0 5.67383V8.67383H6H10H16V5.67383C16 4.5707 15.1031 3.67383 14 3.67383H12V2.42383C12 1.4582 11.2156 0.673828 10.25 0.673828H5.75C4.78438 0.673828 4 1.4582 4 2.42383ZM16 9.67383H10V10.6738C10 11.227 9.55313 11.6738 9 11.6738H7C6.44688 11.6738 6 11.227 6 10.6738V9.67383H0V13.6738C0 14.777 0.896875 15.6738 2 15.6738H14C15.1031 15.6738 16 14.777 16 13.6738V9.67383Z" fill="#3254D3"/>
</svg>
