<svg width="100" height="100" viewBox="0 0 100 100" fill="none" xmlns="http://www.w3.org/2000/svg">
<path d="M51.5625 8.50625V4.6875C51.5625 3.825 50.8625 3.125 50 3.125C49.1375 3.125 48.4375 3.825 48.4375 4.6875V8.50625C48.4375 9.36875 49.1375 10.0688 50 10.0688C50.8625 10.0688 51.5625 9.36875 51.5625 8.50625Z" fill="#46CE95"/>
<path d="M51.5625 95.3124V91.4937C51.5625 90.6312 50.8625 89.9312 50 89.9312C49.1375 89.9312 48.4375 90.6312 48.4375 91.4937V95.3124C48.4375 96.1749 49.1375 96.8749 50 96.8749C50.8625 96.8749 51.5625 96.1749 51.5625 95.3124Z" fill="#46CE95"/>
<path d="M95.3109 48.4375H91.4922C90.6297 48.4375 89.9297 49.1375 89.9297 50C89.9297 50.8625 90.6297 51.5625 91.4922 51.5625H95.3109C96.1734 51.5625 96.8734 50.8625 96.8734 50C96.8734 49.1375 96.1734 48.4375 95.3109 48.4375Z" fill="#46CE95"/>
<path d="M10.0688 50C10.0688 49.1375 9.36875 48.4375 8.50625 48.4375H4.6875C3.825 48.4375 3.125 49.1375 3.125 50C3.125 50.8625 3.825 51.5625 4.6875 51.5625H8.50625C9.36875 51.5625 10.0688 50.8625 10.0688 50Z" fill="#46CE95"/>
<path d="M79.3402 22.2219C79.7402 22.2219 80.1402 22.0688 80.4449 21.7641L83.1449 19.0641C83.7559 18.4531 83.7559 17.4656 83.1449 16.8547C82.534 16.2437 81.5465 16.2437 80.9355 16.8547L78.2355 19.5547C77.6246 20.1656 77.6246 21.1531 78.2355 21.7641C78.5402 22.0688 78.9402 22.2219 79.3402 22.2219Z" fill="#46CE95"/>
<path d="M16.8566 83.1454C17.1613 83.4501 17.5613 83.6032 17.9613 83.6032C18.3613 83.6032 18.7613 83.4501 19.066 83.1454L21.766 80.4454C22.377 79.8345 22.377 78.847 21.766 78.236C21.1551 77.6251 20.1676 77.6251 19.5566 78.236L16.8566 80.936C16.2457 81.547 16.2457 82.5345 16.8566 83.1454Z" fill="#46CE95"/>
<path d="M78.2355 80.4454L80.9355 83.1454C81.2402 83.4501 81.6402 83.6032 82.0402 83.6032C82.4402 83.6032 82.8402 83.4501 83.1449 83.1454C83.7559 82.5345 83.7559 81.547 83.1449 80.936L80.4449 78.236C79.834 77.6251 78.8465 77.6251 78.2355 78.236C77.6246 78.847 77.6246 79.8345 78.2355 80.4454Z" fill="#46CE95"/>
<path d="M19.5566 21.7641C19.8613 22.0688 20.2613 22.2219 20.6613 22.2219C21.0613 22.2219 21.4613 22.0688 21.766 21.7641C22.377 21.1531 22.377 20.1656 21.766 19.5547L19.066 16.8547C18.4551 16.2437 17.4676 16.2437 16.8566 16.8547C16.2457 17.4656 16.2457 18.4531 16.8566 19.0641L19.5566 21.7641Z" fill="#46CE95"/>
<path d="M50.0008 22.2217C34.6836 22.2217 22.2227 34.6826 22.2227 49.9998C22.2227 65.317 34.6836 77.7779 50.0008 77.7779C65.318 77.7779 77.7789 65.317 77.7789 49.9998C77.7789 34.6826 65.318 22.2217 50.0008 22.2217ZM64.018 43.242L48.2914 58.967C47.9867 59.2717 47.5867 59.4248 47.1867 59.4248C46.7867 59.4248 46.3867 59.2717 46.082 58.967L35.9852 48.8701C35.3742 48.2592 35.3742 47.2717 35.9852 46.6607C36.5961 46.0498 37.5836 46.0498 38.1945 46.6607L47.1867 55.6529L61.8086 41.0326C62.4195 40.4217 63.407 40.4217 64.018 41.0326C64.6289 41.6436 64.6289 42.6311 64.018 43.242Z" fill="#46CE95"/>
</svg>
