<svg width="17" height="18" viewBox="0 0 17 18" fill="none" xmlns="http://www.w3.org/2000/svg">
<path d="M15.5029 10.1475C15.5029 10.6997 15.0552 11.1475 14.5029 11.1475H7.07925C6.81404 11.1475 6.55968 11.2528 6.37215 11.4404L6.17961 11.6329C5.99208 11.8204 5.88672 12.0748 5.88672 12.34V14.7188C5.88672 15.271 5.439 15.7188 4.88672 15.7188H2C1.44772 15.7188 1 15.271 1 14.7188V11.832C1 11.2797 1.44772 10.832 2 10.832H4.82176C5.06279 10.832 5.29393 10.7362 5.46421 10.5656C5.63408 10.3954 5.72949 10.1648 5.72949 9.9243V2.37402C5.72949 1.82174 6.17721 1.37402 6.72949 1.37402H14.5029C15.0552 1.37402 15.5029 1.82174 15.5029 2.37402V10.1475Z" fill="#F73E2A"/>
</svg>
