<svg width="18" height="18" viewBox="0 0 18 18" fill="none" xmlns="http://www.w3.org/2000/svg">
<path d="M16.3584 10.1489C16.3584 10.7012 15.9107 11.1489 15.3584 11.1489H7.93472C7.6695 11.1489 7.41515 11.2543 7.22761 11.4418L7.03508 11.6344C6.84754 11.8219 6.74219 12.0762 6.74219 12.3415V14.7202C6.74219 15.2725 6.29447 15.7202 5.74219 15.7202H2.85547C2.30318 15.7202 1.85547 15.2725 1.85547 14.7202V11.8335C1.85547 11.2812 2.30318 10.8335 2.85547 10.8335H5.67723C5.91826 10.8335 6.1494 10.7376 6.31968 10.567C6.48955 10.3969 6.58496 10.1662 6.58496 9.92576V2.37549C6.58496 1.8232 7.03268 1.37549 7.58496 1.37549H15.3584C15.9107 1.37549 16.3584 1.8232 16.3584 2.37549V10.1489Z" fill="#FFBD47"/>
</svg>
